<?xml version="1.0" encoding="UTF-8" standalone="no"?>
<svg xmlns="http://www.w3.org/2000/svg" width="391" height="391" viewBox="0 0 391 391" version="1.1">
  <rect width="100%" height="100%" fill="#ffffff"/>
  <path d="M 87 168 L 86 172 L 88 176 L 96 183 L 102 185 L 131 185 L 132 212 L 130 214 L 101 214 L 100 212 L 109 205 L 112 196 L 95 195 L 86 199 L 81 206 L 80 215 L 82 222 L 87 227 L 92 229 L 113 230 L 123 227 L 131 215 L 133 221 L 140 228 L 147 230 L 148 181 L 145 175 L 135 168 Z" fill="#0a2f55" stroke="none"/>
  <path d="M 223 170 L 176 170 L 179 178 L 188 185 L 217 187 L 216 213 L 187 213 L 180 217 L 175 225 L 176 265 L 180 265 L 185 262 L 191 253 L 192 230 L 215 230 L 224 228 L 230 223 L 233 218 L 234 184 L 232 178 Z" fill="#0a2f55" stroke="none"/>
  <path d="M 247 171 L 241 178 L 240 189 L 242 194 L 249 201 L 255 203 L 268 203 L 268 199 L 270 198 L 274 204 L 276 203 L 288 213 L 242 214 L 241 215 L 243 221 L 246 225 L 256 230 L 290 230 L 297 227 L 303 218 L 303 208 L 300 202 L 290 195 L 276 195 L 273 198 L 270 194 L 266 195 L 261 189 L 256 186 L 299 185 L 300 181 L 298 177 L 288 169 L 251 169 Z" fill="#0a2f55" stroke="none"/>
  <path d="M 170 132 L 163 134 L 155 144 L 156 230 L 163 228 L 169 222 L 171 217 Z" fill="#0a2f55" stroke="none"/>
</svg>
