<svg width="407" height="407" xmlns="http://www.w3.org/2000/svg" version="1.1">
 <g>
  <title>Layer 1</title>
  <rect fill="#ffffff" x="-0.49806" y="-18.12119" width="473.99999" height="503.99999" id="svg_8"/>
  <g id="svg_7">
   <path d="m123.5,102.5l-11,3l-6,4l-12,15l-8,23l-1,31l4,24l4,11l6,10l16,12l9,3l14,1l15,-5l12,-11l5,-10l1,-11l-1,-4l-4,-5l-10,-2l-7,3l-8,8l-6,12l-5,0l-9,-4l-7,-7l-4,-8l-4,-18l0,-17l3,-16l4,-8l10,-8l9,-1l7,3l12,12l4,0l4,-2l2,-3l-1,-12l-10,-15l-13,-7l-14,-1z" fill="#000000" id="svg_2"/>
   <path d="m237.5,100.5l-4,2l-3,4l-3,16l-6,54l0,35l2,12l4,10l7,7l7,1l4,-2l8,-8l8,-3l9,-7l10,7l8,0l7,-5l0,-5l-4,-4l-7,1l-3,-3l-4,-16l-7,-7l-9,0l-7,4l-7,8l-4,11l-2,0l0,-43l8,-62l-5,-6l-7,-1z" fill="#000000" id="svg_3"/>
   <path d="m194.5,203.5l-8,5l-8,13l-6,17l-7,28l0,9l4,4l9,-1l4,-7l6,-25l16,-1l2,2l5,32l5,5l6,0l5,-5l0,-9l-5,-29l-6,-20l-5,-10l-6,-6l-4,-2l-7,0z" fill="#000000" id="svg_4"/>
   <path d="m293.5,51.5l-10,6l-10,10l-6,10l-1,6l5,5l6,-1l6,-11l9,-9l13,-6l17,0l15,7l8,8l5,9l2,8l0,9l-2,8l-5,9l-7,7l-10,5l-4,4l0,6l3,3l9,-1l10,-6l9,-9l7,-12l3,-11l0,-15l-4,-13l-6,-10l-10,-10l-13,-7l-13,-3l-11,0l-15,4z" fill="#000000" id="svg_5"/>
   <path d="m106.5,288.5l0,3l4,5l20,9l27,7l25,3l21,0l31,-4l29,-9l12,-6l2,-3l-1,-7l-3,-2l-5,0l-16,8l-26,7l-14,2l-39,0l-34,-7l-24,-11l-5,0l-4,5z" fill="#000000" id="svg_6"/>
  </g>
 </g>

</svg>